<mxfile host="app.diagrams.net" agent="Mozilla/5.0 (X11; Linux x86_64) AppleWebKit/537.36 (KHTML, like Gecko) Chrome/135.0.0.0 Safari/537.36" version="26.2.14">
  <diagram name="Seite-1" id="9IFU-nLFUSI8aJs2Wvov">
    <mxGraphModel grid="1" page="1" gridSize="10" guides="1" tooltips="1" connect="1" arrows="1" fold="1" pageScale="1" pageWidth="827" pageHeight="1169" math="0" shadow="0">
      <root>
        <mxCell id="0" />
        <mxCell id="1" parent="0" />
        <mxCell id="1ws4lAU_BQrNF8Fh03W4-1" value="openSUSE Host" style="rounded=1;whiteSpace=wrap;html=1;" vertex="1" parent="1">
          <mxGeometry x="240" y="310" width="120" height="60" as="geometry" />
        </mxCell>
        <mxCell id="1ws4lAU_BQrNF8Fh03W4-2" value="Rancher Kubernetes Cluster" style="rounded=1;whiteSpace=wrap;html=1;" vertex="1" parent="1">
          <mxGeometry x="464" y="410" width="120" height="60" as="geometry" />
        </mxCell>
        <mxCell id="1ws4lAU_BQrNF8Fh03W4-4" value="Docker Daemon" style="rounded=1;whiteSpace=wrap;html=1;" vertex="1" parent="1">
          <mxGeometry x="240" y="410" width="120" height="60" as="geometry" />
        </mxCell>
        <mxCell id="1ws4lAU_BQrNF8Fh03W4-5" value="" style="endArrow=classic;startArrow=classic;html=1;rounded=0;entryX=0.5;entryY=1;entryDx=0;entryDy=0;exitX=0.5;exitY=0;exitDx=0;exitDy=0;" edge="1" parent="1" source="1ws4lAU_BQrNF8Fh03W4-4" target="1ws4lAU_BQrNF8Fh03W4-1">
          <mxGeometry width="50" height="50" relative="1" as="geometry">
            <mxPoint x="500" y="560" as="sourcePoint" />
            <mxPoint x="550" y="510" as="targetPoint" />
          </mxGeometry>
        </mxCell>
        <mxCell id="1ws4lAU_BQrNF8Fh03W4-6" value="Vagrant&amp;nbsp;&lt;div&gt;Host&lt;/div&gt;" style="rounded=1;whiteSpace=wrap;html=1;" vertex="1" parent="1">
          <mxGeometry x="464" y="310" width="120" height="60" as="geometry" />
        </mxCell>
        <mxCell id="1ws4lAU_BQrNF8Fh03W4-7" value="Python Service&amp;nbsp;&lt;div&gt;Vuln App&lt;/div&gt;" style="rounded=1;whiteSpace=wrap;html=1;" vertex="1" parent="1">
          <mxGeometry x="60" y="310" width="120" height="60" as="geometry" />
        </mxCell>
        <mxCell id="1ws4lAU_BQrNF8Fh03W4-8" value="" style="endArrow=classic;startArrow=classic;html=1;rounded=0;exitX=1;exitY=0.5;exitDx=0;exitDy=0;entryX=0;entryY=0.5;entryDx=0;entryDy=0;" edge="1" parent="1" source="1ws4lAU_BQrNF8Fh03W4-7" target="1ws4lAU_BQrNF8Fh03W4-1">
          <mxGeometry width="50" height="50" relative="1" as="geometry">
            <mxPoint x="500" y="560" as="sourcePoint" />
            <mxPoint x="550" y="510" as="targetPoint" />
          </mxGeometry>
        </mxCell>
        <mxCell id="1ws4lAU_BQrNF8Fh03W4-21" value="python" style="edgeLabel;html=1;align=center;verticalAlign=middle;resizable=0;points=[];" vertex="1" connectable="0" parent="1ws4lAU_BQrNF8Fh03W4-8">
          <mxGeometry x="-0.16" relative="1" as="geometry">
            <mxPoint as="offset" />
          </mxGeometry>
        </mxCell>
        <mxCell id="1ws4lAU_BQrNF8Fh03W4-10" value="" style="endArrow=classic;html=1;rounded=0;exitX=0.442;exitY=1;exitDx=0;exitDy=0;exitPerimeter=0;entryX=0;entryY=0.5;entryDx=0;entryDy=0;" edge="1" parent="1" source="1ws4lAU_BQrNF8Fh03W4-7" target="1ws4lAU_BQrNF8Fh03W4-4">
          <mxGeometry width="50" height="50" relative="1" as="geometry">
            <mxPoint x="500" y="560" as="sourcePoint" />
            <mxPoint x="550" y="510" as="targetPoint" />
          </mxGeometry>
        </mxCell>
        <mxCell id="1ws4lAU_BQrNF8Fh03W4-20" value="docker-compose" style="edgeLabel;html=1;align=center;verticalAlign=middle;resizable=0;points=[];" vertex="1" connectable="0" parent="1ws4lAU_BQrNF8Fh03W4-10">
          <mxGeometry x="-0.2456" y="2" relative="1" as="geometry">
            <mxPoint y="1" as="offset" />
          </mxGeometry>
        </mxCell>
        <mxCell id="1ws4lAU_BQrNF8Fh03W4-12" value="" style="endArrow=classic;html=1;rounded=0;exitX=1;exitY=0.5;exitDx=0;exitDy=0;entryX=0;entryY=0.5;entryDx=0;entryDy=0;" edge="1" parent="1" source="1ws4lAU_BQrNF8Fh03W4-4" target="1ws4lAU_BQrNF8Fh03W4-2">
          <mxGeometry width="50" height="50" relative="1" as="geometry">
            <mxPoint x="500" y="560" as="sourcePoint" />
            <mxPoint x="550" y="510" as="targetPoint" />
          </mxGeometry>
        </mxCell>
        <mxCell id="1ws4lAU_BQrNF8Fh03W4-19" value="rke deployments" style="edgeLabel;html=1;align=center;verticalAlign=middle;resizable=0;points=[];" vertex="1" connectable="0" parent="1ws4lAU_BQrNF8Fh03W4-12">
          <mxGeometry x="0.0769" y="-1" relative="1" as="geometry">
            <mxPoint as="offset" />
          </mxGeometry>
        </mxCell>
        <mxCell id="1ws4lAU_BQrNF8Fh03W4-14" value="" style="endArrow=classic;startArrow=classic;html=1;rounded=0;exitX=0.5;exitY=0;exitDx=0;exitDy=0;" edge="1" parent="1" source="1ws4lAU_BQrNF8Fh03W4-2" target="1ws4lAU_BQrNF8Fh03W4-6">
          <mxGeometry width="50" height="50" relative="1" as="geometry">
            <mxPoint x="520" y="440" as="sourcePoint" />
            <mxPoint x="550" y="510" as="targetPoint" />
          </mxGeometry>
        </mxCell>
        <mxCell id="1ws4lAU_BQrNF8Fh03W4-15" value="" style="endArrow=classic;startArrow=classic;html=1;rounded=0;exitX=1;exitY=0.5;exitDx=0;exitDy=0;entryX=0;entryY=0.5;entryDx=0;entryDy=0;" edge="1" parent="1" source="1ws4lAU_BQrNF8Fh03W4-1" target="1ws4lAU_BQrNF8Fh03W4-2">
          <mxGeometry width="50" height="50" relative="1" as="geometry">
            <mxPoint x="500" y="560" as="sourcePoint" />
            <mxPoint x="550" y="510" as="targetPoint" />
          </mxGeometry>
        </mxCell>
        <mxCell id="1ws4lAU_BQrNF8Fh03W4-18" value="kubectl" style="edgeLabel;html=1;align=center;verticalAlign=middle;resizable=0;points=[];" vertex="1" connectable="0" parent="1ws4lAU_BQrNF8Fh03W4-15">
          <mxGeometry x="-0.0092" y="2" relative="1" as="geometry">
            <mxPoint as="offset" />
          </mxGeometry>
        </mxCell>
        <mxCell id="1ws4lAU_BQrNF8Fh03W4-16" value="" style="endArrow=classic;startArrow=classic;html=1;rounded=0;exitX=1;exitY=0.5;exitDx=0;exitDy=0;entryX=0;entryY=0.5;entryDx=0;entryDy=0;" edge="1" parent="1" source="1ws4lAU_BQrNF8Fh03W4-1" target="1ws4lAU_BQrNF8Fh03W4-6">
          <mxGeometry width="50" height="50" relative="1" as="geometry">
            <mxPoint x="500" y="560" as="sourcePoint" />
            <mxPoint x="550" y="510" as="targetPoint" />
          </mxGeometry>
        </mxCell>
        <mxCell id="1ws4lAU_BQrNF8Fh03W4-17" value="ssh" style="edgeLabel;html=1;align=center;verticalAlign=middle;resizable=0;points=[];" vertex="1" connectable="0" parent="1ws4lAU_BQrNF8Fh03W4-16">
          <mxGeometry x="-0.2308" y="1" relative="1" as="geometry">
            <mxPoint as="offset" />
          </mxGeometry>
        </mxCell>
        <mxCell id="1ws4lAU_BQrNF8Fh03W4-22" value="Internet/&lt;div&gt;Network&lt;/div&gt;" style="ellipse;shape=cloud;whiteSpace=wrap;html=1;" vertex="1" parent="1">
          <mxGeometry x="630" y="240" width="120" height="80" as="geometry" />
        </mxCell>
        <mxCell id="1ws4lAU_BQrNF8Fh03W4-28" value="Gateway/&lt;br&gt;Port-Forwarding" style="rounded=0;whiteSpace=wrap;html=1;" vertex="1" parent="1">
          <mxGeometry x="650" y="410" width="120" height="60" as="geometry" />
        </mxCell>
        <mxCell id="1ws4lAU_BQrNF8Fh03W4-30" value="" style="endArrow=classic;startArrow=classic;html=1;rounded=0;entryX=0;entryY=0.5;entryDx=0;entryDy=0;exitX=1;exitY=0.5;exitDx=0;exitDy=0;" edge="1" parent="1" source="1ws4lAU_BQrNF8Fh03W4-2" target="1ws4lAU_BQrNF8Fh03W4-28">
          <mxGeometry width="50" height="50" relative="1" as="geometry">
            <mxPoint x="500" y="560" as="sourcePoint" />
            <mxPoint x="550" y="510" as="targetPoint" />
          </mxGeometry>
        </mxCell>
        <mxCell id="1ws4lAU_BQrNF8Fh03W4-31" value="" style="endArrow=classic;startArrow=classic;html=1;rounded=0;entryX=0.07;entryY=0.4;entryDx=0;entryDy=0;entryPerimeter=0;exitX=0.5;exitY=0;exitDx=0;exitDy=0;" edge="1" parent="1" source="1ws4lAU_BQrNF8Fh03W4-1" target="1ws4lAU_BQrNF8Fh03W4-22">
          <mxGeometry width="50" height="50" relative="1" as="geometry">
            <mxPoint x="500" y="560" as="sourcePoint" />
            <mxPoint x="550" y="510" as="targetPoint" />
            <Array as="points">
              <mxPoint x="300" y="270" />
            </Array>
          </mxGeometry>
        </mxCell>
        <mxCell id="1ws4lAU_BQrNF8Fh03W4-32" value="http" style="edgeLabel;html=1;align=center;verticalAlign=middle;resizable=0;points=[];" vertex="1" connectable="0" parent="1ws4lAU_BQrNF8Fh03W4-31">
          <mxGeometry x="-0.3132" y="-5" relative="1" as="geometry">
            <mxPoint as="offset" />
          </mxGeometry>
        </mxCell>
        <mxCell id="1ws4lAU_BQrNF8Fh03W4-33" value="Microservices&lt;div&gt;Monitoring&lt;/div&gt;&lt;div&gt;Prometheus/Grafana&lt;/div&gt;" style="rounded=0;whiteSpace=wrap;html=1;" vertex="1" parent="1">
          <mxGeometry x="350" y="525" width="120" height="60" as="geometry" />
        </mxCell>
        <mxCell id="1ws4lAU_BQrNF8Fh03W4-36" value="" style="endArrow=none;html=1;rounded=0;entryX=0.5;entryY=1;entryDx=0;entryDy=0;exitX=0.5;exitY=0;exitDx=0;exitDy=0;" edge="1" parent="1" source="1ws4lAU_BQrNF8Fh03W4-33" target="1ws4lAU_BQrNF8Fh03W4-2">
          <mxGeometry width="50" height="50" relative="1" as="geometry">
            <mxPoint x="500" y="560" as="sourcePoint" />
            <mxPoint x="550" y="510" as="targetPoint" />
          </mxGeometry>
        </mxCell>
        <mxCell id="1ws4lAU_BQrNF8Fh03W4-37" value="Microservices&lt;div&gt;Falco&lt;/div&gt;&lt;div&gt;Securtiy Observation&lt;/div&gt;" style="rounded=0;whiteSpace=wrap;html=1;" vertex="1" parent="1">
          <mxGeometry x="480" y="525" width="120" height="60" as="geometry" />
        </mxCell>
        <mxCell id="1ws4lAU_BQrNF8Fh03W4-40" value="" style="endArrow=none;html=1;rounded=0;exitX=0.5;exitY=0;exitDx=0;exitDy=0;entryX=0.5;entryY=1;entryDx=0;entryDy=0;" edge="1" parent="1" source="1ws4lAU_BQrNF8Fh03W4-37" target="1ws4lAU_BQrNF8Fh03W4-2">
          <mxGeometry width="50" height="50" relative="1" as="geometry">
            <mxPoint x="500" y="560" as="sourcePoint" />
            <mxPoint x="550" y="510" as="targetPoint" />
          </mxGeometry>
        </mxCell>
        <mxCell id="1ws4lAU_BQrNF8Fh03W4-41" value="Microservices&lt;div&gt;Business apps&lt;/div&gt;" style="rounded=0;whiteSpace=wrap;html=1;" vertex="1" parent="1">
          <mxGeometry x="610" y="525" width="120" height="60" as="geometry" />
        </mxCell>
        <mxCell id="1ws4lAU_BQrNF8Fh03W4-42" value="" style="endArrow=none;html=1;rounded=0;entryX=0.5;entryY=1;entryDx=0;entryDy=0;exitX=0.5;exitY=0;exitDx=0;exitDy=0;" edge="1" parent="1" source="1ws4lAU_BQrNF8Fh03W4-41" target="1ws4lAU_BQrNF8Fh03W4-2">
          <mxGeometry width="50" height="50" relative="1" as="geometry">
            <mxPoint x="500" y="560" as="sourcePoint" />
            <mxPoint x="550" y="510" as="targetPoint" />
          </mxGeometry>
        </mxCell>
        <mxCell id="1ws4lAU_BQrNF8Fh03W4-44" value="&lt;h1 style=&quot;margin-top: 0px;&quot;&gt;Project Hardening Microservices Architecture&lt;/h1&gt;&lt;p&gt;This diagram should give a rough overview of our system, components and communication&lt;/p&gt;" style="text;html=1;whiteSpace=wrap;overflow=hidden;rounded=0;" vertex="1" parent="1">
          <mxGeometry x="50" y="140" width="740" height="120" as="geometry" />
        </mxCell>
      </root>
    </mxGraphModel>
  </diagram>
</mxfile>
